<svg viewBox="0 0 315 126" preserveAspectRatio="xMidYMid meet" xmlns="http://www.w3.org/2000/svg" xmlns:xlink="http://www.w3.org/1999/xlink" width="315" height="126" fill="none" stroke="none"><rect x="0" y="0" width="18" height="18" fill="hsl(255, 46%, 86%, 1)" stroke="none"></rect><rect x="21" y="0" width="18" height="18" fill="hsl(255, 46%, 86%, 1)" stroke="none"></rect><rect x="42" y="0" width="18" height="18" fill="hsl(29, 93%, 83%, 1)" stroke="none"></rect><rect x="63" y="0" width="18" height="18" fill="hsl(194, 70%, 85%, 1)" stroke="none"></rect><rect x="84" y="0" width="18" height="18" fill="hsl(255, 46%, 86%, 1)" stroke="none"></rect><rect x="105" y="0" width="18" height="18" fill="hsl(212, 67%, 30%, 1)" stroke="none"></rect><rect x="126" y="0" width="18" height="18" fill="hsl(255, 46%, 86%, 1)" stroke="none"></rect><rect x="147" y="0" width="18" height="18" fill="hsl(194, 70%, 85%, 1)" stroke="none"></rect><rect x="168" y="0" width="18" height="18" fill="hsl(194, 70%, 85%, 1)" stroke="none"></rect><rect x="189" y="0" width="18" height="18" fill="hsl(194, 70%, 85%, 1)" stroke="none"></rect><rect x="210" y="0" width="18" height="18" fill="hsl(194, 70%, 85%, 1)" stroke="none"></rect><rect x="231" y="0" width="18" height="18" fill="hsl(212, 67%, 30%, 1)" stroke="none"></rect><rect x="252" y="0" width="18" height="18" fill="hsl(212, 67%, 30%, 1)" stroke="none"></rect><rect x="273" y="0" width="18" height="18" fill="hsl(255, 46%, 86%, 1)" stroke="none"></rect><rect x="294" y="0" width="18" height="18" fill="hsl(29, 93%, 83%, 1)" stroke="none"></rect><rect x="0" y="21" width="18" height="18" fill="hsl(261, 45%, 43%, 1)" stroke="none"></rect><rect x="21" y="21" width="18" height="18" fill="hsl(261, 45%, 43%, 1)" stroke="none"></rect><rect x="42" y="21" width="18" height="18" fill="hsl(255, 46%, 86%, 1)" stroke="none"></rect><rect x="63" y="21" width="18" height="18" fill="hsl(194, 70%, 85%, 1)" stroke="none"></rect><rect x="84" y="21" width="18" height="18" fill="hsl(261, 45%, 43%, 1)" stroke="none"></rect><rect x="105" y="21" width="18" height="18" fill="hsl(255, 46%, 86%, 1)" stroke="none"></rect><rect x="126" y="21" width="18" height="18" fill="hsl(261, 45%, 43%, 1)" stroke="none"></rect><rect x="147" y="21" width="18" height="18" fill="hsl(194, 70%, 85%, 1)" stroke="none"></rect><rect x="168" y="21" width="18" height="18" fill="hsl(261, 45%, 43%, 1)" stroke="none"></rect><rect x="189" y="21" width="18" height="18" fill="hsl(212, 67%, 30%, 1)" stroke="none"></rect><rect x="210" y="21" width="18" height="18" fill="hsl(194, 70%, 85%, 1)" stroke="none"></rect><rect x="231" y="21" width="18" height="18" fill="hsl(255, 46%, 86%, 1)" stroke="none"></rect><rect x="252" y="21" width="18" height="18" fill="hsl(29, 93%, 83%, 1)" stroke="none"></rect><rect x="273" y="21" width="18" height="18" fill="hsl(194, 70%, 85%, 1)" stroke="none"></rect><rect x="294" y="21" width="18" height="18" fill="hsl(261, 45%, 43%, 1)" stroke="none"></rect><rect x="0" y="42" width="18" height="18" fill="hsl(194, 70%, 85%, 1)" stroke="none"></rect><rect x="21" y="42" width="18" height="18" fill="hsl(29, 93%, 83%, 1)" stroke="none"></rect><rect x="42" y="42" width="18" height="18" fill="hsl(212, 67%, 30%, 1)" stroke="none"></rect><rect x="63" y="42" width="18" height="18" fill="hsl(255, 46%, 86%, 1)" stroke="none"></rect><rect x="84" y="42" width="18" height="18" fill="hsl(29, 93%, 83%, 1)" stroke="none"></rect><rect x="105" y="42" width="18" height="18" fill="hsl(212, 67%, 30%, 1)" stroke="none"></rect><rect x="126" y="42" width="18" height="18" fill="hsl(194, 70%, 85%, 1)" stroke="none"></rect><rect x="147" y="42" width="18" height="18" fill="hsl(255, 46%, 86%, 1)" stroke="none"></rect><rect x="168" y="42" width="18" height="18" fill="hsl(261, 45%, 43%, 1)" stroke="none"></rect><rect x="189" y="42" width="18" height="18" fill="hsl(212, 67%, 30%, 1)" stroke="none"></rect><rect x="210" y="42" width="18" height="18" fill="hsl(261, 45%, 43%, 1)" stroke="none"></rect><rect x="231" y="42" width="18" height="18" fill="hsl(255, 46%, 86%, 1)" stroke="none"></rect><rect x="252" y="42" width="18" height="18" fill="hsl(29, 93%, 83%, 1)" stroke="none"></rect><rect x="273" y="42" width="18" height="18" fill="hsl(261, 45%, 43%, 1)" stroke="none"></rect><rect x="294" y="42" width="18" height="18" fill="hsl(29, 93%, 83%, 1)" stroke="none"></rect><rect x="0" y="63" width="18" height="18" fill="hsl(212, 67%, 30%, 1)" stroke="none"></rect><rect x="21" y="63" width="18" height="18" fill="hsl(255, 46%, 86%, 1)" stroke="none"></rect><rect x="42" y="63" width="18" height="18" fill="hsl(255, 46%, 86%, 1)" stroke="none"></rect><rect x="63" y="63" width="18" height="18" fill="hsl(29, 93%, 83%, 1)" stroke="none"></rect><rect x="84" y="63" width="18" height="18" fill="hsl(29, 93%, 83%, 1)" stroke="none"></rect><rect x="105" y="63" width="18" height="18" fill="hsl(29, 93%, 83%, 1)" stroke="none"></rect><rect x="126" y="63" width="18" height="18" fill="hsl(194, 70%, 85%, 1)" stroke="none"></rect><rect x="147" y="63" width="18" height="18" fill="hsl(212, 67%, 30%, 1)" stroke="none"></rect><rect x="168" y="63" width="18" height="18" fill="hsl(194, 70%, 85%, 1)" stroke="none"></rect><rect x="189" y="63" width="18" height="18" fill="hsl(255, 46%, 86%, 1)" stroke="none"></rect><rect x="210" y="63" width="18" height="18" fill="hsl(212, 67%, 30%, 1)" stroke="none"></rect><rect x="231" y="63" width="18" height="18" fill="hsl(194, 70%, 85%, 1)" stroke="none"></rect><rect x="252" y="63" width="18" height="18" fill="hsl(255, 46%, 86%, 1)" stroke="none"></rect><rect x="273" y="63" width="18" height="18" fill="hsl(212, 67%, 30%, 1)" stroke="none"></rect><rect x="294" y="63" width="18" height="18" fill="hsl(255, 46%, 86%, 1)" stroke="none"></rect><rect x="0" y="84" width="18" height="18" fill="hsl(212, 67%, 30%, 1)" stroke="none"></rect><rect x="21" y="84" width="18" height="18" fill="hsl(255, 46%, 86%, 1)" stroke="none"></rect><rect x="42" y="84" width="18" height="18" fill="hsl(212, 67%, 30%, 1)" stroke="none"></rect><rect x="63" y="84" width="18" height="18" fill="hsl(255, 46%, 86%, 1)" stroke="none"></rect><rect x="84" y="84" width="18" height="18" fill="hsl(194, 70%, 85%, 1)" stroke="none"></rect><rect x="105" y="84" width="18" height="18" fill="hsl(261, 45%, 43%, 1)" stroke="none"></rect><rect x="126" y="84" width="18" height="18" fill="hsl(255, 46%, 86%, 1)" stroke="none"></rect><rect x="147" y="84" width="18" height="18" fill="hsl(255, 46%, 86%, 1)" stroke="none"></rect><rect x="168" y="84" width="18" height="18" fill="hsl(255, 46%, 86%, 1)" stroke="none"></rect><rect x="189" y="84" width="18" height="18" fill="hsl(212, 67%, 30%, 1)" stroke="none"></rect><rect x="210" y="84" width="18" height="18" fill="hsl(194, 70%, 85%, 1)" stroke="none"></rect><rect x="231" y="84" width="18" height="18" fill="hsl(261, 45%, 43%, 1)" stroke="none"></rect><rect x="252" y="84" width="18" height="18" fill="hsl(261, 45%, 43%, 1)" stroke="none"></rect><rect x="273" y="84" width="18" height="18" fill="hsl(255, 46%, 86%, 1)" stroke="none"></rect><rect x="294" y="84" width="18" height="18" fill="hsl(194, 70%, 85%, 1)" stroke="none"></rect><rect x="0" y="105" width="18" height="18" fill="hsl(29, 93%, 83%, 1)" stroke="none"></rect><rect x="21" y="105" width="18" height="18" fill="hsl(261, 45%, 43%, 1)" stroke="none"></rect><rect x="42" y="105" width="18" height="18" fill="hsl(194, 70%, 85%, 1)" stroke="none"></rect><rect x="63" y="105" width="18" height="18" fill="hsl(194, 70%, 85%, 1)" stroke="none"></rect><rect x="84" y="105" width="18" height="18" fill="hsl(212, 67%, 30%, 1)" stroke="none"></rect><rect x="105" y="105" width="18" height="18" fill="hsl(261, 45%, 43%, 1)" stroke="none"></rect><rect x="126" y="105" width="18" height="18" fill="hsl(255, 46%, 86%, 1)" stroke="none"></rect><rect x="147" y="105" width="18" height="18" fill="hsl(29, 93%, 83%, 1)" stroke="none"></rect><rect x="168" y="105" width="18" height="18" fill="hsl(261, 45%, 43%, 1)" stroke="none"></rect><rect x="189" y="105" width="18" height="18" fill="hsl(194, 70%, 85%, 1)" stroke="none"></rect><rect x="210" y="105" width="18" height="18" fill="hsl(29, 93%, 83%, 1)" stroke="none"></rect><rect x="231" y="105" width="18" height="18" fill="hsl(212, 67%, 30%, 1)" stroke="none"></rect><rect x="252" y="105" width="18" height="18" fill="hsl(29, 93%, 83%, 1)" stroke="none"></rect><rect x="273" y="105" width="18" height="18" fill="hsl(212, 67%, 30%, 1)" stroke="none"></rect><rect x="294" y="105" width="18" height="18" fill="hsl(255, 46%, 86%, 1)" stroke="none"></rect></svg>